<svg width="47" height="47" viewBox="0 0 47 47" fill="none" xmlns="http://www.w3.org/2000/svg">
<g clip-path="url(#clip0_62_920)">
<path d="M39.0005 17.4001C40.3613 13.2107 40.6173 9.39061 39.6899 6.49623C39.6812 6.46974 39.6722 6.44247 39.6633 6.41558C39.6077 6.25853 39.4693 5.92655 39.2939 5.92655C39.1607 5.92655 39.1588 6.14875 39.1665 6.26171C39.1692 6.28343 39.172 6.30488 39.1745 6.32673C39.4701 8.91096 38.6795 12.5986 37.0904 16.4594C33.8312 14.9797 29.9167 13.7977 25.5749 13.1009C21.6723 12.474 17.9365 12.3357 14.5483 12.6124C14.9512 9.94702 15.9464 8.09337 17.5794 7.70232C19.8271 7.16417 22.2788 8.64255 24.6164 11.3331C25.0204 11.3883 25.4251 11.4483 25.8304 11.5132C26.9839 11.6985 28.1161 11.9184 29.227 12.1725C24.965 4.15567 19.2482 -0.337401 14.9005 1.32118C11.592 2.58237 9.90173 7.13451 10.1031 13.2524C5.79448 14.1688 2.35827 15.8571 0.315398 18.1074C0.296332 18.1284 0.277663 18.1496 0.258851 18.1707C0.150667 18.2974 -0.0676922 18.5832 0.0204964 18.7351C0.0867097 18.8505 0.280439 18.741 0.374456 18.678C0.391808 18.6647 0.409017 18.6515 0.426635 18.6383C2.51692 17.09 6.10581 15.9309 10.2437 15.3767C10.5918 18.9388 11.5262 22.9197 13.0931 27.0287C14.5014 30.7219 16.2495 34.0265 18.1833 36.8223C15.6734 37.8059 13.5707 37.8707 12.4156 36.6522C10.8255 34.9748 10.8795 32.1126 12.0413 28.7426C11.8872 28.3652 11.7368 27.9848 11.5902 27.6012C11.1739 26.5096 10.7982 25.4194 10.463 24.3304C5.65014 32.0298 4.61738 39.2273 8.22721 42.1636C10.9742 44.3982 15.7621 43.5859 20.9597 40.3529C23.9075 43.6261 27.0878 45.7578 30.058 46.4018C30.0857 46.4078 30.1133 46.4133 30.1412 46.4192C30.305 46.4495 30.6615 46.4957 30.7494 46.3437C30.8156 46.2282 30.6245 46.1155 30.5227 46.0656C30.5026 46.0571 30.483 46.0488 30.4626 46.0401C28.0766 45.0039 25.2782 42.4755 22.7291 39.169C25.6402 37.0863 28.6204 34.2869 31.3955 30.8755C33.8897 27.8091 35.8774 24.643 37.3318 21.5703C39.4386 23.2521 40.5462 25.0407 40.0684 26.6504C39.4108 28.8661 36.905 30.2504 33.4056 30.9294C33.1559 31.2515 32.9015 31.5719 32.6427 31.8906C31.9055 32.797 31.149 33.6676 30.3733 34.5025C39.4472 34.8203 46.1966 32.1156 46.9346 27.5213C47.4967 24.0253 44.3995 20.2853 39.0005 17.4001ZM31.1191 26.5637C27.9192 30.4976 23.9304 33.8469 20.3834 35.7833C19.0497 33.6402 17.8683 31.3158 16.9642 28.9452C15.1573 24.2072 14.251 19.0779 14.3478 15.038C16.8703 14.9547 19.4742 15.0936 21.9792 15.496C26.9858 16.3002 31.881 18.0799 35.3312 20.1837C34.142 22.4102 32.7207 24.5955 31.1191 26.5637Z" fill="white"/>
</g>
<defs>
<clipPath id="clip0_62_920">
<rect width="47" height="47" fill="white"/>
</clipPath>
</defs>
</svg>
