<svg width="48" height="47" viewBox="0 0 48 47" fill="none" xmlns="http://www.w3.org/2000/svg">
<path d="M19.086 31.9608L19.0641 31.8951L19.0203 31.8273L18.9963 31.7594L18.9744 31.7156L18.9525 31.6478L18.9306 31.5581L18.9065 31.5121L18.8627 31.4464L18.8409 31.3786L18.8168 31.3107L18.7949 31.2451L18.7511 31.1093L18.7051 31.0415L18.6833 30.9758L18.6395 30.8401L18.6154 30.7745L18.5935 30.7066L18.5497 30.6388L18.5257 30.5709L18.5038 30.5052L18.4819 30.5709L18.46 30.6388L18.4359 30.7066L18.3922 30.7745L18.3703 30.8401L18.3462 30.908L18.3243 30.9758L18.2805 31.0415V31.1093L18.2346 31.1772L18.2127 31.2451L18.1908 31.3107L18.1689 31.3786L18.1448 31.4464L18.1229 31.5121L18.0792 31.5581L18.0551 31.6478L18.0332 31.7156L18.0113 31.7594L17.9894 31.8273L17.9434 31.917L17.9216 31.9608L17.8997 32.0286H19.1101L19.086 31.9608ZM19.086 31.9608L19.0641 31.8951L19.0203 31.8273L18.9963 31.7594L18.9744 31.7156L18.9525 31.6478L18.9306 31.5581L18.9065 31.5121L18.8627 31.4464L18.8409 31.3786L18.8168 31.3107L18.7949 31.2451L18.7511 31.1093L18.7051 31.0415L18.6833 30.9758L18.6395 30.8401L18.6154 30.7745L18.5935 30.7066L18.5497 30.6388L18.5257 30.5709L18.5038 30.5052L18.4819 30.5709L18.46 30.6388L18.4359 30.7066L18.3922 30.7745L18.3703 30.8401L18.3462 30.908L18.3243 30.9758L18.2805 31.0415V31.1093L18.2346 31.1772L18.2127 31.2451L18.1908 31.3107L18.1689 31.3786L18.1448 31.4464L18.1229 31.5121L18.0792 31.5581L18.0551 31.6478L18.0332 31.7156L18.0113 31.7594L17.9894 31.8273L17.9434 31.917L17.9216 31.9608L17.8997 32.0286H19.1101L19.086 31.9608ZM20.3643 8.56257H19.4909V14.6124H20.3643C20.8348 14.6124 21.2157 14.2315 21.2157 13.7391V9.4359C21.2157 8.94342 20.8348 8.56257 20.3643 8.56257ZM20.3643 8.56257H19.4909V14.6124H20.3643C20.8348 14.6124 21.2157 14.2315 21.2157 13.7391V9.4359C21.2157 8.94342 20.8348 8.56257 20.3643 8.56257ZM5.88538 0V38.6191L23.816 47L41.7466 38.6191V0H5.88538ZM25.5408 5.98417H28.141V22.3695H25.5408V5.98417ZM23.8598 29.6297L23.9057 29.6976L23.9495 29.7414L23.9736 29.8092L24.0174 29.8771L24.0633 29.9208L24.0852 29.9887L24.129 30.0565L24.1749 30.1244L24.1968 30.1682L24.2428 30.236L24.2866 30.3017L24.3085 30.3476L24.3544 30.4155L24.3763 30.4812L24.4201 30.5271L24.4661 30.595L24.5098 30.6606L24.5339 30.7066L24.5777 30.7745L24.6237 30.8401L24.6455 30.908L24.6893 30.9518L24.7134 30.908L24.7572 30.8401L24.8031 30.7745L24.8469 30.7066L24.8688 30.6606L24.9148 30.595L24.9585 30.5271L24.9804 30.4812L25.0264 30.4155L25.0483 30.3476L25.0942 30.3017L25.138 30.236L25.1599 30.1682L25.2059 30.1244L25.2496 30.0565L25.2956 29.9887L25.3175 29.9208L25.3635 29.8771L25.3854 29.8092L25.4291 29.7414L25.4751 29.6976L25.497 29.6297L25.5408 29.5641L25.5867 29.4962L25.6305 29.4502L25.6546 29.3846L25.6984 29.3167L25.7443 29.2708L25.7662 29.2051L25.81 29.1591L25.8341 29.0935L25.8778 29.0256L25.9238 28.9578L25.9676 28.914H27.4253V34.1124H26.0354V31.0415L26.0135 31.0875L25.9676 31.1553L25.9238 31.221L25.8778 31.2669L25.8559 31.3348L25.81 31.4005L25.7662 31.4464L25.7443 31.5121L25.6984 31.5799L25.6546 31.6259L25.6086 31.6916L25.5867 31.7594L25.5408 31.8054L25.497 31.871L25.4751 31.9389L25.4291 31.9827L25.3854 32.0505L25.3394 32.1184L25.3175 32.1622L25.2737 32.23L25.2278 32.2979L25.184 32.3416L25.1599 32.4095L25.1161 32.4773L25.0702 32.5211L25.0264 32.589L25.0045 32.6327L24.9585 32.7006L24.9148 32.7685L24.8688 32.8122L24.8469 32.8801L24.8031 32.9479L24.7572 32.9917L24.7134 33.0596L24.6893 33.1274H24.6674L24.6237 33.0596L24.5777 32.9917L24.5339 32.9479L24.5098 32.8801L24.4661 32.8122L24.4201 32.7685L24.3763 32.7006L24.3544 32.6327L24.3085 32.5671L24.2647 32.5211L24.2187 32.4555L24.1968 32.3876L24.1531 32.3198L24.1071 32.276L24.0633 32.2081L24.0392 32.1403L23.9955 32.0724L23.9495 32.0286L23.9057 31.9608L23.8598 31.8951L23.8379 31.8492L23.7941 31.7813L23.7481 31.7156L23.7044 31.6697L23.6825 31.6018L23.6365 31.5362L23.5927 31.4683L23.5468 31.4223L23.5249 31.3567L23.4789 31.2888L23.4351 31.221L23.3892 31.1772L23.3673 31.1093L23.3235 31.0415V34.1124H21.9555V28.914H23.4351L23.457 28.9578L23.503 29.0256L23.5468 29.0935L23.5687 29.1591L23.6146 29.2051L23.6365 29.2708L23.6825 29.3167L23.7262 29.3846L23.7481 29.4502L23.7941 29.4962L23.8379 29.5641L23.8598 29.6297ZM16.9125 5.98417H20.6773C22.7851 5.98417 23.816 7.01509 23.816 9.1229V14.2315C23.816 16.2058 22.8529 17.1908 20.8808 17.1908H19.5128V22.3695H16.9125V5.98417ZM15.1199 33.4185L15.0739 33.4623L15.0083 33.4864L14.9623 33.5302L14.8945 33.5761L14.8507 33.6199L14.7828 33.6418L14.7391 33.6877L14.6712 33.7315L14.6033 33.7534L14.5377 33.7994L14.4917 33.8213L14.4239 33.8672L14.3582 33.8891L14.2903 33.9329L14.2225 33.957L14.1568 33.9789L14.0211 34.0226L13.9533 34.0467L13.8876 34.0686L13.7519 34.1124L13.6862 34.1365L13.6184 34.1583H13.5505L13.4827 34.1802H13.3273L13.2594 34.2021H13.1018L13.0362 34.224H12.721L12.6531 34.2021H12.4977L12.4299 34.1802H12.362L12.2964 34.1583H12.2066L12.1607 34.1365H12.0709L12.0052 34.1124L11.8695 34.0686L11.8258 34.0467L11.7579 34.0226L11.6901 34.0007L11.6222 33.957L11.5565 33.9329L11.4887 33.911L11.4208 33.8672L11.3771 33.8213L11.3092 33.7994L11.2414 33.7534L11.1976 33.7315L11.1297 33.6877L11.086 33.6418L11.0181 33.598L10.9284 33.5083L10.8605 33.4623L10.7708 33.3726L10.727 33.3069L10.6373 33.2172L10.5913 33.1493L10.5475 33.1033L10.5015 33.0377L10.4797 32.9917L10.4359 32.926L10.4118 32.8582L10.368 32.8122L10.3461 32.7466L10.3002 32.6787L10.2564 32.543L10.2345 32.4992L10.2104 32.4314L10.1885 32.3657L10.1667 32.2979V32.23L10.1448 32.1622L10.1207 32.0965V32.0286L10.0988 31.9608V31.8951L10.0769 31.8273V31.221L10.0988 31.1312V31.0656L10.1207 30.9977V30.9299L10.1448 30.862L10.1667 30.7963L10.2104 30.6606L10.2345 30.595L10.3002 30.3914L10.3461 30.3258L10.368 30.2579L10.4118 30.1901L10.4359 30.1463L10.4797 30.0784L10.5015 30.0346L10.5475 29.9668L10.5913 29.8989L10.6373 29.8552L10.681 29.7873L10.7708 29.6976L10.8167 29.6538L10.8605 29.5859L10.9502 29.4962L11.0181 29.4502L11.0619 29.4065L11.1297 29.3605L11.1757 29.3386L11.2414 29.2948L11.2873 29.2489L11.3552 29.2051L11.4208 29.181L11.4887 29.1372L11.5325 29.1154L11.6003 29.0694L11.736 29.0256L11.8017 28.9796H11.8695L11.9374 28.9359H12.0052L12.0709 28.914L12.1388 28.8899L12.2066 28.868L12.2723 28.8461H12.408L12.4977 28.8242H12.6312L12.6991 28.8002H13.0121L13.0799 28.8242H13.3032L13.3929 28.8461H13.4389L13.5286 28.868H13.5965L13.6622 28.8899L13.7081 28.914H13.7738L13.9774 28.9796L14.043 29.0037L14.089 29.0256L14.1568 29.0475L14.2225 29.0935L14.2903 29.1154L14.3582 29.1591L14.402 29.181L14.4698 29.227L14.5377 29.2489L14.6033 29.2948L14.6493 29.3386L14.7172 29.3605L14.7609 29.4065L14.8288 29.4502L14.8726 29.5181L14.9404 29.54L14.8945 29.6078L14.8507 29.6538L14.8069 29.7195L14.7609 29.7654L14.7172 29.8311L14.6712 29.8771L14.6274 29.9449L14.5815 29.9887L14.5377 30.0346L14.4917 30.1003L14.4479 30.1682L14.3801 30.2141L14.3341 30.2579L14.3122 30.3258L14.1568 30.4812L14.1109 30.549L14.0671 30.5052L13.9992 30.4593L13.9533 30.4155L13.8876 30.3695L13.8416 30.3476L13.7738 30.3017L13.7081 30.2579L13.6622 30.236L13.5965 30.2141L13.5505 30.1682L13.4827 30.1463L13.417 30.1244L13.3492 30.1003H13.2813L13.2135 30.0784L13.1478 30.0565H12.9902L12.9224 30.0346H12.7669L12.6991 30.0565H12.6312L12.5656 30.0784H12.4977L12.4299 30.1003L12.362 30.1244L12.3182 30.1682L12.2504 30.1901L12.1825 30.2141L12.1388 30.2579L12.0709 30.3017L11.9812 30.3914L11.9155 30.4155L11.8695 30.4812L11.8258 30.5271L11.7798 30.5709L11.7579 30.6388L11.7119 30.6847L11.6901 30.7504L11.6463 30.8182L11.6222 30.8861L11.6003 30.9299L11.5565 30.9977L11.5325 31.0875V31.1553L11.5106 31.221V31.2888L11.4887 31.3567V31.6697L11.5106 31.7375V31.8054L11.5325 31.871V31.9389L11.5565 32.0068L11.5784 32.0724L11.6003 32.1184L11.6463 32.2519L11.6901 32.3198L11.7119 32.3876L11.7579 32.4314L11.8017 32.4992L11.9812 32.6787L12.049 32.7225L12.0928 32.7685L12.1607 32.8122L12.2066 32.8363L12.2723 32.8801L12.3401 32.902L12.408 32.926L12.4758 32.9479L12.5415 32.9698L12.6312 32.9917H12.6991L12.7669 33.0158H13.0799L13.1697 32.9917H13.2375L13.3032 32.9698H13.3711L13.5068 32.926L13.5724 32.902L13.6403 32.8801L13.7081 32.8363L13.7519 32.8122L13.7979 32.7903V32.1184H12.7669V31.0875H15.1199V33.4185ZM15.1878 8.56257H12.5875V12.8876H15.1878V15.466H12.5875V19.7911H15.1878V22.3695H10.0091V5.98417H15.1878V8.56257ZM17.1599 33.9329L17.1358 34.0007L17.1139 34.0467L17.0701 34.1124H15.6343L15.6802 34.0467L15.7021 34.0007L15.724 33.9329L15.7481 33.8432L15.77 33.7994L15.8138 33.7315L15.8378 33.6637L15.8597 33.598L15.9035 33.5302L15.9276 33.4623L15.9495 33.3966L15.9932 33.2609L16.0392 33.1931V33.1493L16.0611 33.0815L16.1049 33.0158L16.1289 32.9479L16.1508 32.8801L16.1946 32.8363L16.2187 32.7685L16.2625 32.6327L16.3084 32.5671L16.3522 32.4314L16.3982 32.3657L16.4638 32.1622L16.4879 32.0965L16.5317 32.0286L16.5536 31.9827L16.5755 31.8951L16.5995 31.8273L16.6433 31.7813L16.6652 31.7156L16.6893 31.6478L16.7112 31.5799L16.7549 31.5121L16.779 31.4464L16.8228 31.3107L16.8688 31.2451L16.9344 31.0415L16.9585 30.9758L17.0023 30.9299L17.0242 30.862L17.0482 30.7963L17.092 30.7285L17.1139 30.6606L17.1358 30.595L17.1599 30.5271L17.1817 30.4593L17.2255 30.3914L17.2496 30.3258L17.2934 30.1901L17.3153 30.1244L17.3612 30.0565L17.3831 30.0106L17.405 29.9449L17.451 29.8552L17.4729 29.8092L17.4947 29.7414L17.5188 29.6757L17.5407 29.6078L17.5845 29.54L17.6086 29.4743L17.6523 29.3386L17.6961 29.2708L17.7202 29.2051L17.7421 29.1591L17.764 29.0694L17.8099 29.0037L17.8318 28.9578L17.8537 28.8899H19.1757L19.2217 28.9578L19.2436 29.0037L19.2655 29.0694L19.2896 29.1591L19.3114 29.2051L19.3333 29.2708L19.3552 29.3386L19.4012 29.4065L19.4231 29.4502L19.445 29.54L19.4909 29.5859L19.5128 29.6538L19.5347 29.7195L19.5566 29.7873L19.5807 29.8552L19.6244 29.9208L19.6463 29.9887L19.6704 30.0565L19.6923 30.1244L19.7361 30.1901L19.7601 30.2579L19.782 30.3258L19.8039 30.3914L19.8499 30.4593L19.8718 30.5052L19.8937 30.5709L19.9156 30.6388L19.9615 30.7066L19.9834 30.7745L20.0053 30.8401L20.0272 30.908L20.0513 30.9758L20.095 31.0415L20.1169 31.1093L20.141 31.1772L20.1848 31.2451L20.2067 31.3107L20.2307 31.3786L20.2526 31.4223L20.2964 31.5581L20.3205 31.6259L20.3643 31.6916L20.3861 31.7594L20.4102 31.8054L20.4321 31.871L20.4759 31.9608L20.4978 32.0068L20.5218 32.0724L20.5437 32.1403L20.5875 32.2081L20.6116 32.276L20.6335 32.3416L20.6773 32.4773L20.7232 32.543L20.767 32.6787L20.813 32.7466L20.8348 32.8122L20.8567 32.8801L20.8808 32.926L20.9027 32.9917L20.9465 33.0596L20.9706 33.1274L20.9924 33.1931L21.0143 33.2609L21.0581 33.3288L21.0822 33.3966L21.1041 33.4623L21.126 33.5302L21.1719 33.598L21.1938 33.6637L21.2376 33.7994L21.2836 33.8432L21.3054 33.9329L21.3273 34.0007L21.3514 34.0467L21.3733 34.1124H19.9156L19.8718 34.0467L19.8499 34.0007L19.8258 33.9329L19.8039 33.8432L19.782 33.7994L19.7601 33.7315L19.7142 33.6637L19.6923 33.598L19.6704 33.5302L19.6463 33.4623L19.6244 33.3966L19.6026 33.3288L19.5566 33.2609L19.5347 33.1931L19.5128 33.1274H17.4729L17.451 33.1931L17.4291 33.2609L17.3831 33.3288L17.3612 33.3966L17.3393 33.4623L17.3153 33.5302L17.2934 33.598L17.2715 33.6637L17.2255 33.7315L17.2036 33.7994L17.1817 33.8432L17.1599 33.9329ZM30.3167 39.5822L23.7262 42.4736H23.6146L17.2934 39.5822C17.1358 39.5143 17.1817 39.2911 17.3393 39.2911H30.2489C30.4283 39.2911 30.4721 39.5143 30.3167 39.5822ZM32.6237 34.1124H28.4781V28.914H32.6018V30.0784H29.822V30.9299H32.3107V32.0505H29.822V32.9479H32.6237V34.1124ZM37.5551 32.7685L37.5332 32.8363V32.902L37.5113 32.9698L37.4872 33.0377L37.4653 33.1274L37.4434 33.1712L37.4215 33.239L37.3756 33.3069L37.3537 33.3507L37.3077 33.4185L37.2639 33.4864L37.2421 33.5302L37.1961 33.5761L37.1523 33.6418L37.1064 33.6637L37.0407 33.7315L36.9947 33.7775L36.9269 33.8213L36.8831 33.8432L36.8152 33.8891L36.7474 33.9329L36.7036 33.957L36.6358 34.0007L36.546 34.0226L36.4804 34.0467L36.2768 34.1124L36.2111 34.1365H36.1433L36.0754 34.1583H36.0098L35.9419 34.1802H35.8062L35.7165 34.2021H35.2021L35.1342 34.1802H34.9788L34.911 34.1583H34.8431L34.7753 34.1365H34.6855L34.6199 34.1124L34.4842 34.0686H34.4185L34.3507 34.0467L34.2828 34.0226L34.215 34.0007L34.1493 33.9789L34.0814 33.957L34.0136 33.911L33.9457 33.8891L33.8801 33.8672L33.8122 33.8213L33.7444 33.7994L33.6787 33.7534L33.6327 33.7315L33.5649 33.6877L33.4992 33.6418L33.4533 33.6199L33.3854 33.5761L33.3416 33.5302L33.2738 33.4864L33.23 33.4404L33.1621 33.3966L33.1184 33.3507L33.1621 33.3069L33.2081 33.239L33.2519 33.1931L33.2978 33.1274L33.3416 33.0815L33.3854 33.0158L33.4751 32.926L33.5211 32.8582L33.5649 32.8122L33.6108 32.7466L33.6546 32.7006L33.7006 32.6327L33.7444 32.589L33.7903 32.5211L33.8582 32.4773L33.8801 32.4314L33.9457 32.4555L34.0136 32.4992L34.0595 32.543L34.1252 32.589L34.1931 32.6327L34.2609 32.6787L34.3047 32.7006L34.3725 32.7466L34.4404 32.7685L34.5061 32.8122L34.552 32.8363L34.6199 32.8582L34.6855 32.8801L34.7534 32.902L34.8212 32.926L34.8891 32.9479L34.9548 32.9698L35.0226 32.9917H35.1124L35.1802 33.0158H35.2459L35.3137 33.0377H35.7165L35.7843 33.0158H35.8522L35.92 32.9917L35.9638 32.9698L36.0098 32.9479L36.0754 32.902L36.1214 32.8582L36.1652 32.7225V32.5671L36.1433 32.4773L36.0535 32.3876L35.9857 32.3416L35.9419 32.3198L35.8062 32.276L35.7165 32.23L35.6727 32.2081H35.6048L35.5392 32.1862L35.4713 32.1622L35.3356 32.1184L35.27 32.0965H35.1802L35.1124 32.0724L35.0445 32.0505L34.9788 32.0286H34.8891L34.8212 32.0068L34.7534 31.9827L34.6855 31.9608L34.6199 31.9389L34.552 31.917L34.5061 31.8951L34.4185 31.871L34.3507 31.8492L34.2828 31.8054L34.215 31.7813L34.1493 31.7594L34.0595 31.7156L34.0136 31.6697L33.9457 31.6478L33.8801 31.6018L33.7444 31.4683L33.6787 31.4223L33.6327 31.3786L33.589 31.3107L33.5649 31.2669L33.5211 31.221L33.4992 31.1553L33.4533 31.0875L33.4314 31.0415V30.9758L33.4095 30.908L33.3854 30.8401L33.3635 30.7745V30.6388L33.3416 30.5709V30.3914L33.3635 30.3258V30.1901L33.3854 30.1244L33.4095 30.0565L33.4314 29.9887V29.9208L33.4533 29.8771L33.4992 29.8092L33.5211 29.7414L33.5649 29.6757L33.589 29.6078L33.6327 29.54L33.6787 29.4962L33.7225 29.4284L33.7684 29.3846L33.8341 29.3386L33.8801 29.2708L33.9238 29.2489L33.9917 29.2051L34.0355 29.1591L34.1033 29.1154L34.1712 29.0935L34.239 29.0475L34.3047 29.0256L34.3725 28.9796H34.4404L34.5061 28.9359L34.5739 28.914H34.6199L34.6855 28.8899L34.7534 28.868H34.8212L34.8891 28.8461H35.0226L35.1124 28.8242H35.5611L35.6267 28.8461H35.8522L35.9419 28.868H36.0098L36.0754 28.8899L36.1433 28.914H36.2111L36.2768 28.9359L36.4125 28.9796H36.4804L36.546 29.0256L36.6817 29.0694L36.7474 29.0935L36.8152 29.1372L36.8831 29.1591L36.9269 29.181L36.9947 29.227L37.0626 29.2708L37.1304 29.2948L37.1742 29.3386L37.2421 29.3846L37.3077 29.4284L37.3537 29.4743L37.4215 29.5181L37.3756 29.5641L37.3318 29.6297L37.2858 29.6757L37.2421 29.7414L37.1961 29.8092L37.1742 29.8552L37.1304 29.9208L37.0845 29.9668L37.0407 30.0346L37.0166 30.0784L36.9728 30.1463L36.9269 30.2141L36.8831 30.2579L36.8371 30.3258L36.7934 30.3914L36.7715 30.4374L36.7255 30.5052L36.6598 30.4593L36.592 30.4155L36.546 30.3914L36.4804 30.3476L36.4125 30.3017L36.3665 30.2798L36.3009 30.236L36.2549 30.2141L36.1871 30.1901L36.1214 30.1682L36.0535 30.1463L36.0098 30.1003L35.92 30.0784L35.7843 30.0346H35.7165L35.6267 30.0106H35.5611L35.4932 29.9887H35.1342L35.0445 30.0106L35.0007 30.0346L34.9329 30.0565L34.8891 30.0784L34.8212 30.1463L34.7753 30.2141L34.7534 30.2579L34.7315 30.3476L34.7753 30.5271L34.8212 30.5709L34.865 30.6169L34.9329 30.6606L34.9788 30.6847L35.0445 30.7285L35.1342 30.7504L35.224 30.7745L35.27 30.7963L35.3356 30.8182H35.4035L35.4494 30.8401L35.5392 30.862L35.6048 30.8861L35.6946 30.908L35.7624 30.9299H35.8522L35.92 30.9518L35.9857 30.9758L36.0754 30.9977L36.2111 31.0415L36.2768 31.0656L36.4804 31.1312L36.546 31.1553L36.6139 31.1991L36.7036 31.221L36.7715 31.2451L36.8371 31.2888L36.8831 31.3348L36.9509 31.3567L37.0166 31.4005L37.0626 31.4464L37.1304 31.4902L37.1742 31.5362L37.2202 31.6018L37.2858 31.6478L37.3318 31.7156L37.3537 31.7594L37.3975 31.8273L37.4434 31.8951L37.4653 31.9389L37.4872 32.0068L37.5113 32.0724V32.1403L37.5551 32.276V32.7685ZM37.6229 12.0143H35.0445V9.4359C35.0445 8.94342 34.6418 8.56257 34.1712 8.56257H33.3197C32.8251 8.56257 32.4442 8.94342 32.4442 9.4359V18.7602C32.4442 19.454 32.7813 19.7911 33.4992 19.7911H34.0136C34.7096 19.7911 35.0445 19.454 35.0445 18.7602V16.3394H37.6229V19.3205C37.6229 21.3605 36.5701 22.3695 34.4185 22.3695H33.0943C30.9208 22.3695 29.868 21.3364 29.868 19.2308V9.1229C29.868 7.01509 30.9208 5.98417 33.0943 5.98417H34.3944C36.5701 5.98417 37.6229 6.9932 37.6229 9.09882V12.0143ZM21.2157 13.7391V9.4359C21.2157 8.94342 20.8348 8.56257 20.3643 8.56257H19.4909V14.6124H20.3643C20.8348 14.6124 21.2157 14.2315 21.2157 13.7391ZM19.1101 32.0286L19.086 31.9608L19.0641 31.8951L19.0203 31.8273L18.9963 31.7594L18.9744 31.7156L18.9525 31.6478L18.9306 31.5581L18.9065 31.5121L18.8627 31.4464L18.8409 31.3786L18.8168 31.3107L18.7949 31.2451L18.7511 31.1093L18.7051 31.0415L18.6833 30.9758L18.6395 30.8401L18.6154 30.7745L18.5935 30.7066L18.5497 30.6388L18.5257 30.5709L18.5038 30.5052L18.4819 30.5709L18.46 30.6388L18.4359 30.7066L18.3922 30.7745L18.3703 30.8401L18.3462 30.908L18.3243 30.9758L18.2805 31.0415V31.1093L18.2346 31.1772L18.2127 31.2451L18.1908 31.3107L18.1689 31.3786L18.1448 31.4464L18.1229 31.5121L18.0792 31.5581L18.0551 31.6478L18.0332 31.7156L18.0113 31.7594L17.9894 31.8273L17.9434 31.917L17.9216 31.9608L17.8997 32.0286H19.1101Z" fill="white"/>
</svg>
