<svg width="27" height="27" viewBox="0 0 27 27" fill="none" xmlns="http://www.w3.org/2000/svg">
<g clip-path="url(#clip0_118_361)">
<path d="M6.39725 8.88576H20.3598V20.5223C20.3598 21.2136 19.8118 21.774 19.1366 21.774H17.7381V25.318C17.7381 26.2179 17.0362 26.9473 16.1698 26.9473C15.3012 26.9473 14.6004 26.2179 14.6004 25.318V21.774H12.1578V25.318C12.1578 26.2179 11.4546 26.9473 10.5882 26.9473C9.722 26.9473 9.01879 26.2179 9.01879 25.318V21.774H7.6215C6.94624 21.774 6.3972 21.2136 6.3972 20.5223L6.39725 8.88576ZM3.66109 8.79079C2.78587 8.79079 2.07693 9.52712 2.07693 10.4361V16.8664C2.07693 17.7743 2.78587 18.5119 3.66109 18.5119C4.53647 18.5119 5.24524 17.7743 5.24524 16.8664V10.4361C5.24524 9.52712 4.53647 8.79079 3.66109 8.79079ZM20.3598 7.71316H6.39725C6.56958 5.67877 7.85993 3.9281 9.71747 2.91444L8.38994 0.920867C8.21091 0.652028 8.27846 0.285207 8.54184 0.102166C8.80491 -0.0808747 9.16286 -0.0112653 9.34276 0.257364L10.7897 2.43171C11.5919 2.148 12.4627 1.9851 13.3785 1.9851C14.2954 1.9851 15.1663 2.148 15.9684 2.43208L17.4153 0.258155C17.593 -0.0112126 17.9521 -0.080822 18.2152 0.102219C18.4786 0.28526 18.5461 0.65208 18.3671 0.92092L17.0406 2.91449C18.8981 3.92752 20.1876 5.67819 20.3598 7.71316ZM11.2059 4.94888C11.2059 4.51261 10.8605 4.15876 10.4341 4.15876C10.0066 4.15876 9.66116 4.51261 9.66116 4.94888C9.66116 5.38494 10.0077 5.73863 10.4341 5.73863C10.8605 5.73863 11.2059 5.38494 11.2059 4.94888ZM17.1937 4.94888C17.1937 4.51261 16.8471 4.15876 16.4208 4.15876C15.9933 4.15876 15.6489 4.51261 15.6489 4.94888C15.6489 5.38494 15.9933 5.73863 16.4208 5.73863C16.8472 5.73863 17.1937 5.38494 17.1937 4.94888ZM23.097 8.78852C22.2227 8.78852 21.5118 9.52596 21.5118 10.435V16.8675C21.5118 17.7766 22.2227 18.5142 23.097 18.5142C23.9724 18.5142 24.68 17.7766 24.68 16.8675V10.435C24.6801 9.52596 23.9724 8.78852 23.097 8.78852Z" fill="white"/>
</g>
<defs>
<clipPath id="clip0_118_361">
<rect width="22.8462" height="27" fill="white" transform="translate(2.07693)"/>
</clipPath>
</defs>
</svg>
