<svg width="27" height="27" viewBox="0 0 27 27" fill="none" xmlns="http://www.w3.org/2000/svg">
<path d="M24.0448 18.765C23.4626 20.058 23.1821 20.636 22.4332 21.7772C21.3849 23.3719 19.9062 25.3631 18.0795 25.3758C16.4531 25.3905 16.0334 24.3147 13.8249 24.3337C11.6185 24.3443 11.1586 25.3969 9.53018 25.38C7.70135 25.3631 6.30284 23.5701 5.25448 21.9776C2.32244 17.512 2.01237 12.2765 3.82432 9.49217C5.10682 7.51779 7.13393 6.35764 9.03869 6.35764C10.9793 6.35764 12.1985 7.42287 13.8017 7.42287C15.3584 7.42287 16.3055 6.35553 18.5499 6.35553C20.2458 6.35553 22.0388 7.27943 23.3213 8.87412C19.1278 11.1733 19.8092 17.1619 24.0448 18.765ZM16.8455 4.5731C17.6618 3.52474 18.282 2.04607 18.0563 0.539978C16.7253 0.630681 15.1685 1.48076 14.2594 2.58185C13.4346 3.58592 12.7512 5.07513 13.017 6.51584C14.4703 6.56224 15.9743 5.69529 16.8455 4.5731Z" fill="white"/>
</svg>
